<svg width="39" height="46" viewBox="0 0 39 46" fill="none" xmlns="http://www.w3.org/2000/svg">
<path d="M32.0072 24.6219C31.9552 18.9816 36.7379 16.2376 36.9566 16.1099C34.248 12.2546 30.0497 11.7279 28.5744 11.6859C25.0484 11.3236 21.6281 13.7456 19.8319 13.7456C17.9999 13.7456 15.2339 11.7209 12.2529 11.7804C8.4167 11.8381 4.82793 14.0064 2.85967 17.3734C-1.20235 24.2386 1.82713 34.3274 5.71885 39.8766C7.66561 42.5944 9.94041 45.6289 12.9179 45.5221C15.8309 45.4049 16.919 43.7091 20.4342 43.7091C23.9173 43.7091 24.939 45.5221 27.9757 45.4539C31.102 45.4049 33.0702 42.7239 34.9489 39.9816C37.1986 36.8666 38.102 33.7989 38.1379 33.6414C38.0644 33.6169 32.0664 31.3821 32.0072 24.6219Z" fill="white"/>
<path d="M26.2709 8.03539C27.8377 6.12264 28.9096 3.52039 28.612 0.879639C26.3444 0.977639 23.5085 2.41089 21.8755 4.28164C20.4307 5.93014 19.14 8.63214 19.4734 11.1731C22.0207 11.3586 24.6361 9.91839 26.2709 8.03539Z" fill="white"/>
</svg>
