<svg width="45" height="48" viewBox="0 0 45 48" fill="none" xmlns="http://www.w3.org/2000/svg">
<path d="M1.36134 2.19283C0.834768 2.73096 0.530029 3.56877 0.530029 4.65377V43.355C0.530029 44.44 0.834768 45.2778 1.36134 45.816L1.49131 45.9341L23.706 24.256V23.7441L1.49131 2.06596L1.36134 2.19283Z" fill="white"/>
<path d="M33.7915 31.4856L26.3948 24.2559V23.744L33.8004 16.5143L33.9662 16.6084L42.7365 21.48C45.2394 22.8625 45.2394 25.1375 42.7365 26.5287L33.9662 31.3915L33.7915 31.4856Z" fill="white"/>
<path d="M32.6219 32.7378L25.0505 25.3462L2.70581 47.1621C3.53713 48.0153 4.89277 48.1181 6.4344 47.265L32.6219 32.7378Z" fill="white"/>
<path d="M32.6219 15.2622L6.4344 0.735066C4.89277 -0.10931 3.53713 -0.00649929 2.70581 0.846624L25.0505 22.6538L32.6219 15.2622Z" fill="white"/>
</svg>
