<svg width="42" height="42" viewBox="0 0 42 42" fill="none" xmlns="http://www.w3.org/2000/svg">
<circle cx="21" cy="21" r="21" fill="#D9D9D9"/>
<path d="M30.7081 12.2051C30.5919 12.1048 30.4505 12.0381 30.2992 12.0121C30.1479 11.9862 29.9923 12.002 29.8494 12.058L10.85 19.4933C10.5807 19.598 10.3528 19.7873 10.2004 20.0328C10.0481 20.2783 9.97959 20.5666 10.0053 20.8543C10.031 21.1421 10.1495 21.4137 10.3429 21.6283C10.5363 21.8429 10.7942 21.9889 11.0778 22.0442L16.0006 23.0108V28.4998C15.9996 28.7988 16.0885 29.0912 16.2556 29.3391C16.4228 29.587 16.6606 29.779 16.9381 29.8901C17.2152 30.0033 17.52 30.0305 17.8127 29.9681C18.1055 29.9057 18.3727 29.7567 18.5797 29.5405L20.9534 27.0786L24.7194 30.3748C24.9911 30.6158 25.3415 30.7492 25.7047 30.7498C25.8638 30.7497 26.022 30.7247 26.1734 30.6758C26.4209 30.5972 26.6434 30.4553 26.8189 30.264C26.9944 30.0727 27.1168 29.8387 27.1737 29.5855L30.979 13.0311C31.0131 12.8818 31.0058 12.726 30.9581 12.5805C30.9104 12.435 30.824 12.3053 30.7081 12.2051ZM24.9762 15.5801L16.5772 21.5951L11.9272 20.683L24.9762 15.5801ZM17.5006 28.4998V24.0486L19.8247 26.0867L17.5006 28.4998ZM25.7065 29.2498L17.9553 22.453L29.1115 14.457L25.7065 29.2498Z" fill="black"/>
</svg>
