<svg width="392" height="269" viewBox="0 0 392 269" fill="none" xmlns="http://www.w3.org/2000/svg">
<rect x="1.8709" y="104.595" width="353.797" height="169.821" rx="13.5" transform="rotate(-16.8788 1.8709 104.595)" fill="#EB788D" stroke="white" stroke-width="3"/>
<rect x="76.6647" y="139.038" width="231.293" height="58.8318" rx="8" transform="rotate(-16.8788 76.6647 139.038)" fill="white"/>
<path d="M152.859 155.167L150.167 155.984L150.844 140.578L153.956 139.634L163.087 152.064L160.396 152.88L153.321 142.944L153.212 142.977L152.859 155.167ZM151.291 149.683L158.631 147.456L159.245 149.481L151.905 151.708L151.291 149.683ZM168.423 150.645C167.603 150.894 166.805 150.906 166.03 150.681C165.254 150.456 164.556 150 163.937 149.312C163.317 148.624 162.834 147.707 162.486 146.561C162.134 145.401 162.027 144.364 162.166 143.452C162.308 142.533 162.643 141.77 163.172 141.165C163.699 140.554 164.364 140.128 165.166 139.884C165.777 139.699 166.312 139.65 166.769 139.739C167.225 139.823 167.613 139.975 167.932 140.195C168.25 140.411 168.51 140.626 168.714 140.841L168.816 140.81L167.236 135.604L169.703 134.856L173.927 148.774L171.508 149.509L171.008 147.864L170.859 147.909C170.809 148.201 170.707 148.527 170.554 148.885C170.399 149.239 170.155 149.575 169.821 149.894C169.487 150.213 169.021 150.463 168.423 150.645ZM168.497 148.418C169.018 148.26 169.42 147.985 169.701 147.592C169.982 147.196 170.14 146.715 170.177 146.149C170.213 145.584 170.129 144.964 169.924 144.289C169.719 143.614 169.446 143.056 169.104 142.615C168.767 142.173 168.373 141.87 167.922 141.705C167.476 141.538 166.988 141.536 166.458 141.697C165.909 141.863 165.495 142.144 165.215 142.541C164.934 142.938 164.778 143.416 164.744 143.975C164.711 144.535 164.793 145.138 164.99 145.786C165.188 146.439 165.457 146.993 165.798 147.448C166.143 147.898 166.543 148.214 166.999 148.398C167.459 148.575 167.958 148.582 168.497 148.418ZM180.478 146.987C179.658 147.236 178.86 147.248 178.084 147.023C177.309 146.798 176.611 146.342 175.992 145.654C175.372 144.966 174.889 144.049 174.541 142.903C174.189 141.743 174.082 140.707 174.221 139.794C174.363 138.875 174.698 138.112 175.226 137.507C175.754 136.896 176.418 136.47 177.22 136.226C177.832 136.041 178.367 135.992 178.824 136.081C179.28 136.165 179.668 136.317 179.987 136.537C180.304 136.753 180.565 136.968 180.769 137.183L180.871 137.152L179.291 131.946L181.758 131.198L185.982 145.116L183.562 145.851L183.063 144.206L182.914 144.251C182.864 144.543 182.762 144.869 182.609 145.227C182.454 145.581 182.21 145.917 181.876 146.236C181.542 146.555 181.076 146.805 180.478 146.987ZM180.552 144.76C181.073 144.602 181.475 144.327 181.756 143.934C182.037 143.538 182.195 143.057 182.231 142.491C182.268 141.926 182.183 141.306 181.979 140.631C181.774 139.956 181.501 139.398 181.159 138.957C180.822 138.515 180.428 138.212 179.977 138.047C179.531 137.88 179.043 137.878 178.513 138.039C177.964 138.205 177.55 138.486 177.27 138.883C176.989 139.28 176.832 139.758 176.799 140.317C176.766 140.877 176.848 141.48 177.044 142.128C177.242 142.781 177.512 143.335 177.853 143.79C178.197 144.24 178.598 144.556 179.054 144.74C179.514 144.917 180.013 144.924 180.552 144.76ZM195.471 130.837L196.048 132.74L189.877 134.612L189.3 132.709L195.471 130.837ZM194.01 142.68L190.543 131.256C190.33 130.554 190.298 129.925 190.446 129.37C190.599 128.814 190.887 128.346 191.311 127.965C191.735 127.584 192.248 127.302 192.851 127.119C193.277 126.99 193.665 126.909 194.017 126.877C194.368 126.844 194.631 126.831 194.806 126.838L194.894 128.889C194.781 128.889 194.64 128.897 194.471 128.913C194.302 128.925 194.12 128.961 193.925 129.02C193.467 129.159 193.177 129.368 193.054 129.648C192.934 129.922 192.936 130.263 193.06 130.67L196.477 141.932L194.01 142.68ZM200.565 140.691L197.397 130.252L199.783 129.528L200.311 131.268L200.419 131.235C200.427 130.575 200.612 130.011 200.975 129.545C201.342 129.073 201.824 128.746 202.422 128.564C202.558 128.523 202.712 128.484 202.884 128.446C203.058 128.403 203.206 128.376 203.326 128.364L204.013 130.627C203.898 130.623 203.723 130.641 203.488 130.683C203.256 130.718 203.036 130.768 202.828 130.831C202.379 130.967 202.006 131.187 201.707 131.49C201.411 131.788 201.213 132.137 201.112 132.539C201.011 132.941 201.028 133.364 201.163 133.808L203.025 139.945L200.565 140.691ZM208.153 138.389L204.985 127.95L207.446 127.203L210.613 137.642L208.153 138.389ZM205.773 126.093C205.383 126.211 205.009 126.184 204.649 126.011C204.289 125.833 204.053 125.561 203.941 125.194C203.829 124.822 203.873 124.465 204.076 124.121C204.277 123.773 204.573 123.54 204.962 123.422C205.356 123.302 205.732 123.332 206.088 123.511C206.447 123.684 206.683 123.956 206.796 124.328C206.907 124.695 206.862 125.052 206.661 125.4C206.463 125.742 206.167 125.973 205.773 126.093ZM217.827 135.676C216.78 135.994 215.81 136.05 214.917 135.846C214.027 135.637 213.256 135.193 212.605 134.514C211.953 133.832 211.461 132.944 211.129 131.852C210.804 130.778 210.721 129.774 210.883 128.839C211.048 127.899 211.431 127.09 212.032 126.413C212.632 125.731 213.43 125.239 214.427 124.936C215.07 124.741 215.709 124.661 216.343 124.696C216.98 124.726 217.584 124.889 218.154 125.186C218.729 125.482 219.244 125.924 219.7 126.513C220.154 127.097 220.52 127.847 220.798 128.763L221.027 129.517L212.47 132.113L211.967 130.455L218.165 128.574C218.018 128.104 217.789 127.716 217.478 127.41C217.166 127.099 216.799 126.891 216.376 126.787C215.958 126.681 215.513 126.7 215.042 126.843C214.539 126.995 214.135 127.252 213.828 127.612C213.521 127.967 213.32 128.375 213.227 128.833C213.136 129.286 213.16 129.747 213.297 130.215L213.736 131.662C213.92 132.27 214.19 132.757 214.544 133.125C214.896 133.488 215.307 133.724 215.776 133.834C216.243 133.94 216.744 133.911 217.279 133.749C217.637 133.641 217.946 133.492 218.205 133.305C218.464 133.113 218.669 132.885 218.822 132.621C218.974 132.357 219.06 132.061 219.079 131.733L221.455 131.295C221.494 131.946 221.379 132.56 221.108 133.136C220.841 133.707 220.431 134.213 219.876 134.653C219.321 135.089 218.638 135.43 217.827 135.676ZM225.092 126.569L226.948 132.686L224.488 133.432L221.32 122.993L223.672 122.279L224.21 124.053L224.332 124.016C224.395 123.359 224.637 122.778 225.058 122.274C225.484 121.769 226.086 121.398 226.865 121.162C227.586 120.943 228.26 120.907 228.888 121.053C229.521 121.197 230.073 121.517 230.545 122.012C231.021 122.506 231.384 123.17 231.632 124.005L233.649 130.652L231.189 131.399L229.288 125.133C229.076 124.435 228.729 123.944 228.247 123.66C227.769 123.374 227.213 123.327 226.579 123.52C226.149 123.651 225.795 123.862 225.517 124.154C225.243 124.44 225.064 124.789 224.981 125.2C224.902 125.61 224.939 126.066 225.092 126.569ZM240.08 128.901C239.26 129.15 238.462 129.162 237.686 128.937C236.91 128.713 236.213 128.256 235.593 127.568C234.974 126.881 234.49 125.964 234.142 124.817C233.79 123.657 233.684 122.621 233.822 121.708C233.964 120.789 234.299 120.027 234.828 119.421C235.355 118.811 236.02 118.384 236.822 118.141C237.434 117.955 237.968 117.907 238.426 117.995C238.882 118.08 239.269 118.232 239.588 118.452C239.906 118.667 240.167 118.882 240.371 119.098L240.473 119.067L238.893 113.861L241.36 113.112L245.583 127.031L243.164 127.765L242.665 126.12L242.515 126.166C242.466 126.458 242.364 126.783 242.21 127.141C242.055 127.495 241.811 127.832 241.477 128.151C241.144 128.47 240.678 128.72 240.08 128.901ZM240.154 126.674C240.675 126.516 241.076 126.241 241.358 125.849C241.638 125.452 241.797 124.971 241.833 124.406C241.869 123.841 241.785 123.221 241.58 122.545C241.375 121.87 241.102 121.312 240.761 120.872C240.424 120.43 240.03 120.126 239.579 119.961C239.132 119.795 238.644 119.792 238.114 119.953C237.566 120.119 237.152 120.401 236.871 120.798C236.591 121.194 236.434 121.673 236.401 122.232C236.368 122.791 236.449 123.395 236.646 124.043C236.844 124.695 237.114 125.249 237.455 125.705C237.799 126.154 238.199 126.471 238.656 126.654C239.115 126.831 239.615 126.838 240.154 126.674Z" fill="#C30A2C"/>
</svg>
