<svg width="475" height="449" viewBox="0 0 475 449" fill="none" xmlns="http://www.w3.org/2000/svg">
<rect x="99.0498" y="85.2986" width="353.797" height="169.821" rx="13.5" transform="rotate(19.521 99.0498 85.2986)" fill="#EAD5AA" stroke="white" stroke-width="3"/>
<rect x="138.812" y="157.405" width="231.293" height="58.8318" rx="8" transform="rotate(19.521 138.812 157.405)" fill="white"/>
<path d="M182.657 212.565L187.517 198.855L190.001 199.736L185.879 211.363L191.917 213.504L191.179 215.586L182.657 212.565ZM193.227 216.312L196.872 206.03L199.295 206.889L195.65 217.171L193.227 216.312ZM198.608 205.002C198.224 204.866 197.939 204.622 197.752 204.27C197.567 203.913 197.539 203.554 197.667 203.192C197.797 202.826 198.045 202.565 198.412 202.409C198.78 202.248 199.157 202.236 199.54 202.372C199.929 202.509 200.213 202.756 200.393 203.111C200.58 203.464 200.608 203.823 200.479 204.189C200.35 204.55 200.102 204.811 199.734 204.972C199.371 205.13 198.996 205.14 198.608 205.002ZM210.971 211.028L203.665 220.012L200.987 219.063L200.97 207.483L203.554 208.399L203.21 216.874L203.317 216.912L208.394 210.115L210.971 211.028ZM213.134 223.595C212.103 223.23 211.289 222.7 210.691 222.006C210.099 221.309 209.743 220.494 209.621 219.562C209.501 218.625 209.632 217.619 210.013 216.543C210.388 215.486 210.918 214.629 211.602 213.972C212.293 213.313 213.082 212.889 213.967 212.701C214.854 212.508 215.789 212.585 216.771 212.933C217.404 213.158 217.966 213.473 218.456 213.877C218.951 214.279 219.34 214.769 219.623 215.346C219.91 215.925 220.062 216.587 220.079 217.332C220.098 218.072 219.948 218.893 219.628 219.794L219.365 220.537L210.937 217.549L211.516 215.916L217.621 218.08C217.781 217.614 217.827 217.166 217.759 216.735C217.692 216.299 217.52 215.914 217.242 215.58C216.968 215.246 216.599 214.998 216.135 214.833C215.64 214.657 215.162 214.624 214.702 214.732C214.243 214.835 213.84 215.044 213.492 215.358C213.151 215.669 212.897 216.054 212.729 216.512L212.224 217.938C212.012 218.536 211.939 219.088 212.006 219.593C212.074 220.095 212.265 220.529 212.577 220.896C212.89 221.258 213.31 221.533 213.837 221.719C214.189 221.844 214.526 221.908 214.846 221.912C215.168 221.91 215.469 221.848 215.748 221.726C216.028 221.604 216.272 221.417 216.482 221.165L218.655 222.222C218.3 222.769 217.843 223.195 217.283 223.499C216.729 223.8 216.098 223.963 215.391 223.989C214.685 224.01 213.933 223.879 213.134 223.595ZM235.585 220.138C235.73 219.532 235.628 218.983 235.279 218.493C234.935 218.004 234.395 217.629 233.658 217.368C233.141 217.184 232.669 217.105 232.243 217.13C231.817 217.155 231.459 217.266 231.168 217.465C230.876 217.663 230.668 217.933 230.541 218.275C230.44 218.561 230.417 218.831 230.472 219.087C230.532 219.344 230.649 219.587 230.824 219.815C231.001 220.038 231.211 220.248 231.453 220.444C231.695 220.64 231.944 220.822 232.202 220.988L233.373 221.765C233.848 222.069 234.288 222.409 234.693 222.783C235.102 223.159 235.441 223.571 235.709 224.018C235.982 224.466 236.152 224.951 236.219 225.472C236.285 225.993 236.213 226.55 236.003 227.144C235.718 227.947 235.262 228.581 234.635 229.047C234.009 229.509 233.247 229.773 232.348 229.842C231.456 229.907 230.461 229.745 229.363 229.356C228.297 228.978 227.429 228.485 226.761 227.876C226.097 227.269 225.656 226.57 225.439 225.78C225.227 224.991 225.264 224.135 225.551 223.212L227.994 224.078C227.861 224.569 227.867 225.018 228.014 225.427C228.16 225.835 228.413 226.191 228.773 226.494C229.137 226.799 229.578 227.044 230.095 227.227C230.635 227.419 231.137 227.506 231.6 227.489C232.069 227.47 232.471 227.356 232.806 227.148C233.143 226.936 233.383 226.634 233.526 226.243C233.648 225.884 233.648 225.553 233.525 225.248C233.403 224.939 233.185 224.64 232.87 224.353C232.561 224.062 232.183 223.768 231.737 223.469L230.32 222.514C229.293 221.824 228.557 221.068 228.109 220.246C227.668 219.422 227.622 218.518 227.97 217.537C228.256 216.729 228.726 216.099 229.378 215.647C230.035 215.197 230.802 214.939 231.679 214.873C232.558 214.803 233.478 214.938 234.437 215.278C235.41 215.623 236.202 216.095 236.814 216.693C237.432 217.289 237.844 217.96 238.052 218.707C238.261 219.449 238.235 220.209 237.975 220.985L235.585 220.138ZM245.525 223.278L244.86 225.152L238.949 223.057L239.614 221.182L245.525 223.278ZM241.946 219.236L244.37 220.095L240.948 229.748C240.832 230.074 240.793 230.341 240.829 230.55C240.872 230.756 240.964 230.919 241.107 231.04C241.25 231.161 241.422 231.258 241.623 231.329C241.775 231.383 241.917 231.42 242.05 231.442C242.187 231.466 242.292 231.481 242.366 231.487L242.102 233.526C241.957 233.525 241.755 233.508 241.495 233.476C241.239 233.446 240.938 233.374 240.591 233.261C239.978 233.064 239.464 232.779 239.048 232.405C238.635 232.028 238.361 231.574 238.227 231.044C238.098 230.516 238.15 229.932 238.382 229.291L241.946 219.236ZM243.906 234.278L247.551 223.996L249.901 224.829L249.293 226.543L249.4 226.581C249.798 226.054 250.282 225.71 250.851 225.55C251.426 225.387 252.008 225.41 252.597 225.619C252.731 225.667 252.878 225.726 253.039 225.798C253.205 225.867 253.34 225.933 253.444 225.995L252.653 228.224C252.563 228.152 252.412 228.063 252.198 227.957C251.99 227.848 251.784 227.757 251.579 227.684C251.137 227.528 250.706 227.483 250.285 227.55C249.871 227.614 249.504 227.778 249.184 228.041C248.865 228.305 248.627 228.655 248.472 229.093L246.329 235.137L243.906 234.278ZM255.437 238.592C254.407 238.227 253.592 237.697 252.994 237.003C252.402 236.306 252.046 235.491 251.924 234.559C251.804 233.622 251.935 232.616 252.316 231.54C252.691 230.483 253.221 229.626 253.906 228.969C254.597 228.31 255.385 227.886 256.27 227.698C257.158 227.505 258.092 227.582 259.074 227.93C259.708 228.155 260.269 228.47 260.759 228.874C261.254 229.276 261.643 229.766 261.926 230.343C262.213 230.922 262.365 231.584 262.383 232.328C262.402 233.069 262.251 233.889 261.932 234.791L261.668 235.534L253.24 232.546L253.819 230.913L259.924 233.077C260.085 232.611 260.13 232.163 260.062 231.732C259.996 231.296 259.823 230.911 259.545 230.576C259.271 230.243 258.902 229.994 258.438 229.83C257.943 229.654 257.465 229.621 257.005 229.729C256.546 229.832 256.143 230.041 255.796 230.355C255.454 230.666 255.2 231.05 255.032 231.509L254.527 232.934C254.315 233.532 254.242 234.084 254.309 234.59C254.378 235.092 254.568 235.526 254.88 235.893C255.193 236.255 255.613 236.53 256.14 236.716C256.493 236.841 256.829 236.905 257.15 236.908C257.472 236.907 257.772 236.845 258.052 236.723C258.331 236.601 258.576 236.414 258.786 236.162L260.958 237.219C260.603 237.766 260.146 238.192 259.586 238.496C259.032 238.797 258.402 238.96 257.694 238.985C256.989 239.006 256.236 238.875 255.437 238.592ZM265.016 241.995C264.364 241.764 263.819 241.44 263.379 241.023C262.945 240.603 262.658 240.11 262.517 239.542C262.381 238.977 262.433 238.357 262.672 237.683C262.877 237.103 263.154 236.661 263.503 236.358C263.852 236.054 264.252 235.854 264.703 235.758C265.154 235.662 265.632 235.638 266.137 235.686C266.649 235.732 267.164 235.817 267.682 235.94C268.307 236.091 268.815 236.209 269.208 236.293C269.602 236.372 269.902 236.388 270.11 236.341C270.323 236.291 270.471 236.15 270.554 235.918L270.568 235.878C270.747 235.374 270.736 234.93 270.535 234.548C270.334 234.165 269.952 233.874 269.39 233.675C268.796 233.464 268.28 233.427 267.84 233.562C267.404 233.699 267.064 233.923 266.818 234.233L264.67 233.109C265.07 232.548 265.549 232.13 266.109 231.856C266.67 231.578 267.284 231.439 267.952 231.439C268.621 231.436 269.315 231.561 270.034 231.816C270.529 231.991 271.002 232.224 271.452 232.514C271.901 232.804 272.282 233.155 272.593 233.567C272.906 233.974 273.104 234.449 273.188 234.991C273.277 235.535 273.2 236.148 272.958 236.831L270.518 243.712L268.189 242.887L268.69 241.474L268.609 241.446C268.361 241.679 268.058 241.873 267.702 242.028C267.352 242.18 266.949 242.261 266.493 242.27C266.044 242.277 265.551 242.185 265.016 241.995ZM266.276 240.438C266.763 240.61 267.219 240.664 267.644 240.599C268.07 240.529 268.436 240.367 268.742 240.114C269.053 239.862 269.275 239.547 269.409 239.167L269.839 237.956C269.741 237.991 269.591 238.003 269.389 237.992C269.191 237.982 268.974 237.958 268.737 237.919C268.499 237.88 268.266 237.838 268.036 237.791C267.806 237.745 267.607 237.705 267.439 237.67C267.06 237.591 266.708 237.556 266.382 237.567C266.057 237.577 265.777 237.653 265.54 237.796C265.306 237.934 265.133 238.159 265.022 238.471C264.864 238.917 264.907 239.312 265.152 239.655C265.397 239.998 265.772 240.259 266.276 240.438ZM272.955 244.576L276.6 234.294L278.916 235.115L278.297 236.862L278.417 236.905C278.84 236.392 279.358 236.058 279.971 235.904C280.585 235.744 281.235 235.787 281.923 236.03C282.619 236.277 283.145 236.655 283.503 237.163C283.866 237.669 284.043 238.246 284.034 238.896L284.141 238.934C284.571 238.444 285.116 238.124 285.776 237.977C286.443 237.826 287.148 237.883 287.894 238.147C288.84 238.483 289.506 239.055 289.892 239.865C290.278 240.675 290.267 241.654 289.861 242.801L287.414 249.702L284.984 248.841L287.298 242.314C287.524 241.676 287.52 241.149 287.285 240.735C287.052 240.315 286.69 240.019 286.199 239.845C285.615 239.637 285.092 239.658 284.632 239.907C284.178 240.153 283.849 240.566 283.643 241.146L281.369 247.559L278.993 246.717L281.342 240.09C281.531 239.559 281.52 239.078 281.311 238.647C281.107 238.218 280.748 237.912 280.235 237.73C279.887 237.607 279.538 237.584 279.189 237.661C278.842 237.734 278.527 237.901 278.243 238.162C277.961 238.419 277.745 238.759 277.595 239.183L275.378 245.435L272.955 244.576Z" fill="#EDB23B"/>
</svg>
