<svg width="392" height="269" viewBox="0 0 392 269" fill="none" xmlns="http://www.w3.org/2000/svg">
<rect x="1.8709" y="104.595" width="353.797" height="169.821" rx="13.5" transform="rotate(-16.8788 1.8709 104.595)" fill="#DAF3F7" stroke="white" stroke-width="3"/>
<rect x="76.6646" y="139.038" width="231.293" height="58.8318" rx="8" transform="rotate(-16.8788 76.6646 139.038)" fill="white"/>
<path d="M117.104 150.979L121.328 164.898L119.085 165.579L109.65 158.088L109.534 158.123L112.411 167.604L109.89 168.369L105.666 154.45L107.923 153.765L117.353 161.265L117.476 161.228L114.597 151.74L117.104 150.979ZM128.65 162.899C127.603 163.216 126.633 163.273 125.74 163.069C124.85 162.859 124.08 162.415 123.429 161.737C122.776 161.054 122.284 160.167 121.953 159.075C121.627 158.001 121.545 156.997 121.707 156.062C121.871 155.122 122.254 154.313 122.855 153.635C123.455 152.954 124.253 152.462 125.25 152.159C125.893 151.964 126.532 151.884 127.166 151.919C127.804 151.948 128.407 152.112 128.977 152.409C129.552 152.704 130.067 153.147 130.523 153.736C130.978 154.32 131.344 155.07 131.621 155.985L131.85 156.74L123.294 159.336L122.791 157.678L128.989 155.797C128.841 155.327 128.612 154.939 128.301 154.633C127.989 154.322 127.622 154.114 127.199 154.009C126.781 153.904 126.337 153.922 125.866 154.065C125.363 154.218 124.958 154.474 124.652 154.835C124.344 155.19 124.143 155.597 124.05 156.056C123.96 156.509 123.983 156.97 124.12 157.438L124.56 158.885C124.744 159.492 125.013 159.98 125.367 160.347C125.72 160.71 126.13 160.947 126.599 161.057C127.067 161.163 127.568 161.134 128.102 160.972C128.46 160.863 128.769 160.715 129.029 160.528C129.287 160.335 129.493 160.107 129.645 159.843C129.798 159.579 129.883 159.284 129.903 158.956L132.278 158.517C132.318 159.168 132.202 159.782 131.932 160.359C131.665 160.93 131.254 161.436 130.7 161.876C130.144 162.312 129.461 162.653 128.65 162.899ZM137.41 160.018L131.292 150.474L133.8 149.713L137.862 156.496L137.958 156.467L137.606 148.558L140.087 147.806L144.177 154.536L144.279 154.505L143.872 146.657L146.387 145.894L146.598 157.23L144.036 158.007L139.938 151.547L139.795 151.59L139.979 159.239L137.41 160.018ZM158.139 142.328L158.717 144.231L152.546 146.103L151.968 144.2L158.139 142.328ZM156.679 154.171L153.212 142.747C152.999 142.044 152.967 141.416 153.115 140.861C153.268 140.305 153.556 139.837 153.98 139.456C154.404 139.075 154.917 138.793 155.519 138.61C155.945 138.481 156.334 138.4 156.685 138.368C157.037 138.335 157.3 138.322 157.475 138.328L157.563 140.38C157.449 140.38 157.308 140.388 157.14 140.404C156.971 140.416 156.788 140.452 156.593 140.511C156.136 140.65 155.846 140.859 155.723 141.139C155.603 141.412 155.605 141.753 155.729 142.161L159.146 153.422L156.679 154.171ZM163.234 152.182L160.066 141.743L162.452 141.019L162.98 142.759L163.088 142.726C163.096 142.066 163.281 141.502 163.644 141.036C164.011 140.563 164.493 140.236 165.091 140.055C165.227 140.014 165.381 139.974 165.552 139.937C165.727 139.894 165.875 139.867 165.995 139.855L166.682 142.118C166.566 142.113 166.391 142.132 166.157 142.173C165.925 142.209 165.705 142.258 165.497 142.322C165.048 142.458 164.674 142.678 164.376 142.981C164.08 143.279 163.882 143.628 163.781 144.03C163.68 144.432 163.697 144.854 163.832 145.298L165.694 151.435L163.234 152.182ZM170.822 149.879L167.654 139.44L170.114 138.694L173.282 149.133L170.822 149.879ZM168.442 137.583C168.052 137.702 167.677 137.674 167.318 137.501C166.957 137.324 166.721 137.052 166.61 136.685C166.497 136.313 166.542 135.955 166.745 135.612C166.946 135.264 167.241 135.031 167.631 134.913C168.025 134.793 168.4 134.823 168.756 135.002C169.116 135.175 169.352 135.447 169.465 135.818C169.576 136.185 169.531 136.543 169.33 136.891C169.132 137.233 168.836 137.464 168.442 137.583ZM180.495 147.167C179.449 147.484 178.479 147.541 177.586 147.337C176.696 147.127 175.925 146.683 175.274 146.005C174.621 145.322 174.129 144.435 173.798 143.343C173.472 142.269 173.39 141.265 173.552 140.33C173.717 139.389 174.1 138.581 174.701 137.903C175.3 137.222 176.099 136.73 177.095 136.427C177.739 136.232 178.378 136.152 179.012 136.187C179.649 136.216 180.253 136.38 180.823 136.677C181.397 136.972 181.913 137.415 182.368 138.004C182.823 138.588 183.189 139.338 183.467 140.253L183.696 141.008L175.139 143.604L174.636 141.946L180.834 140.065C180.687 139.595 180.457 139.207 180.147 138.9C179.835 138.589 179.467 138.382 179.045 138.277C178.627 138.172 178.182 138.19 177.711 138.333C177.208 138.486 176.803 138.742 176.497 139.102C176.189 139.458 175.989 139.865 175.895 140.324C175.805 140.777 175.829 141.237 175.966 141.706L176.405 143.153C176.589 143.76 176.858 144.248 177.212 144.615C177.565 144.978 177.976 145.215 178.445 145.325C178.912 145.431 179.413 145.402 179.948 145.24C180.306 145.131 180.614 144.983 180.874 144.796C181.133 144.603 181.338 144.375 181.49 144.111C181.643 143.847 181.729 143.552 181.748 143.224L184.124 142.785C184.163 143.436 184.047 144.05 183.777 144.627C183.51 145.198 183.099 145.704 182.545 146.144C181.99 146.58 181.306 146.921 180.495 147.167ZM187.761 138.06L189.617 144.176L187.157 144.923L183.989 134.484L186.341 133.77L186.879 135.544L187.001 135.507C187.064 134.85 187.306 134.269 187.727 133.765C188.153 133.26 188.755 132.889 189.534 132.653C190.255 132.434 190.929 132.398 191.557 132.544C192.19 132.688 192.742 133.008 193.214 133.503C193.69 133.997 194.053 134.661 194.301 135.496L196.318 142.143L193.858 142.889L191.956 136.623C191.745 135.926 191.398 135.435 190.916 135.15C190.438 134.865 189.882 134.818 189.248 135.011C188.817 135.141 188.463 135.353 188.186 135.645C187.912 135.931 187.733 136.279 187.65 136.691C187.571 137.1 187.608 137.557 187.761 138.06ZM202.749 140.392C201.929 140.641 201.131 140.653 200.355 140.428C199.579 140.203 198.881 139.747 198.262 139.059C197.643 138.371 197.159 137.454 196.811 136.308C196.459 135.148 196.353 134.112 196.491 133.199C196.633 132.28 196.968 131.518 197.497 130.912C198.024 130.302 198.689 129.875 199.491 129.631C200.102 129.446 200.637 129.397 201.094 129.486C201.551 129.57 201.938 129.723 202.257 129.942C202.575 130.158 202.836 130.373 203.039 130.588L203.141 130.557L201.562 125.351L204.029 124.603L208.252 138.522L205.833 139.256L205.334 137.611L205.184 137.656C205.134 137.949 205.033 138.274 204.879 138.632C204.724 138.986 204.48 139.322 204.146 139.641C203.813 139.96 203.347 140.21 202.749 140.392ZM202.823 138.165C203.344 138.007 203.745 137.732 204.027 137.34C204.307 136.943 204.465 136.462 204.502 135.897C204.538 135.331 204.454 134.711 204.249 134.036C204.044 133.361 203.771 132.803 203.429 132.363C203.092 131.921 202.698 131.617 202.248 131.452C201.801 131.286 201.313 131.283 200.783 131.444C200.235 131.61 199.82 131.892 199.54 132.288C199.26 132.685 199.103 133.163 199.07 133.723C199.037 134.282 199.118 134.885 199.315 135.533C199.513 136.186 199.782 136.74 200.124 137.195C200.468 137.645 200.868 137.962 201.324 138.145C201.784 138.322 202.283 138.329 202.823 138.165ZM215.621 136.285L212.453 125.846L214.839 125.123L215.367 126.862L215.476 126.829C215.483 126.169 215.668 125.606 216.032 125.139C216.398 124.667 216.88 124.34 217.478 124.158C217.614 124.117 217.768 124.078 217.94 124.041C218.115 123.997 218.262 123.97 218.382 123.958L219.069 126.221C218.954 126.217 218.779 126.235 218.544 126.277C218.312 126.313 218.092 126.362 217.884 126.425C217.435 126.561 217.062 126.781 216.763 127.085C216.467 127.382 216.269 127.732 216.168 128.133C216.067 128.535 216.084 128.958 216.219 129.402L218.081 135.539L215.621 136.285ZM227.463 132.915C226.416 133.233 225.446 133.289 224.553 133.085C223.663 132.875 222.892 132.431 222.241 131.753C221.589 131.07 221.097 130.183 220.765 129.091C220.44 128.017 220.358 127.013 220.519 126.078C220.684 125.138 221.067 124.329 221.668 123.652C222.268 122.97 223.066 122.478 224.063 122.175C224.706 121.98 225.345 121.9 225.979 121.935C226.616 121.964 227.22 122.128 227.79 122.425C228.365 122.72 228.88 123.163 229.336 123.752C229.79 124.336 230.156 125.086 230.434 126.001L230.663 126.756L222.106 129.352L221.603 127.694L227.801 125.813C227.654 125.343 227.425 124.955 227.114 124.649C226.802 124.338 226.435 124.13 226.012 124.026C225.594 123.92 225.149 123.938 224.678 124.081C224.175 124.234 223.771 124.49 223.464 124.851C223.157 125.206 222.956 125.613 222.863 126.072C222.773 126.525 222.796 126.986 222.933 127.454L223.372 128.901C223.557 129.508 223.826 129.996 224.18 130.363C224.532 130.726 224.943 130.963 225.412 131.073C225.879 131.179 226.38 131.15 226.915 130.988C227.273 130.879 227.582 130.731 227.842 130.544C228.1 130.351 228.305 130.123 228.458 129.859C228.61 129.595 228.696 129.3 228.716 128.972L231.091 128.533C231.13 129.185 231.015 129.799 230.744 130.375C230.477 130.946 230.067 131.452 229.512 131.892C228.957 132.328 228.274 132.669 227.463 132.915ZM242.278 132.472L240.591 126.912L240.489 126.943C240.439 127.236 240.338 127.561 240.184 127.919C240.029 128.273 239.785 128.609 239.451 128.928C239.117 129.247 238.652 129.497 238.054 129.679C237.233 129.928 236.436 129.94 235.66 129.715C234.884 129.49 234.186 129.034 233.567 128.346C232.948 127.658 232.464 126.741 232.116 125.595C231.764 124.435 231.657 123.399 231.796 122.486C231.938 121.567 232.273 120.805 232.802 120.199C233.329 119.589 233.994 119.162 234.796 118.918C235.407 118.733 235.942 118.684 236.399 118.773C236.855 118.857 237.243 119.01 237.562 119.229C237.88 119.445 238.141 119.66 238.344 119.875L238.494 119.83L237.97 118.104L240.39 117.369L244.745 131.723L242.278 132.472ZM238.127 127.452C238.649 127.294 239.05 127.019 239.332 126.627C239.612 126.23 239.77 125.749 239.807 125.184C239.843 124.618 239.759 123.998 239.554 123.323C239.349 122.648 239.076 122.09 238.734 121.65C238.397 121.208 238.003 120.904 237.553 120.739C237.106 120.573 236.618 120.57 236.088 120.731C235.54 120.897 235.125 121.179 234.845 121.575C234.565 121.972 234.408 122.45 234.375 123.01C234.341 123.569 234.423 124.172 234.62 124.82C234.818 125.473 235.087 126.027 235.428 126.482C235.773 126.932 236.173 127.249 236.629 127.432C237.089 127.609 237.588 127.616 238.127 127.452ZM251.407 120.632L249.571 114.583L252.032 113.837L255.199 124.276L252.814 125L252.251 123.144L252.142 123.177C252.084 123.833 251.841 124.429 251.415 124.964C250.993 125.498 250.39 125.884 249.606 126.121C248.922 126.329 248.271 126.361 247.654 126.217C247.039 126.067 246.496 125.744 246.024 125.249C245.551 124.749 245.188 124.083 244.935 123.249L242.918 116.602L245.378 115.856L247.279 122.122C247.48 122.783 247.821 123.254 248.302 123.534C248.782 123.813 249.317 123.864 249.906 123.685C250.269 123.575 250.593 123.38 250.879 123.1C251.165 122.821 251.364 122.473 251.476 122.058C251.591 121.638 251.568 121.162 251.407 120.632ZM262.412 122.31C261.366 122.627 260.396 122.684 259.503 122.48C258.613 122.27 257.842 121.826 257.191 121.148C256.539 120.465 256.047 119.578 255.715 118.486C255.389 117.412 255.307 116.408 255.469 115.473C255.634 114.532 256.017 113.723 256.618 113.046C257.218 112.365 258.016 111.872 259.013 111.57C259.656 111.375 260.295 111.295 260.929 111.33C261.566 111.359 262.17 111.522 262.74 111.819C263.315 112.115 263.83 112.558 264.286 113.147C264.74 113.731 265.106 114.481 265.384 115.396L265.613 116.151L257.056 118.747L256.553 117.089L262.751 115.208C262.604 114.738 262.375 114.35 262.064 114.043C261.752 113.732 261.385 113.525 260.962 113.42C260.544 113.315 260.099 113.333 259.628 113.476C259.125 113.629 258.721 113.885 258.414 114.245C258.106 114.601 257.906 115.008 257.813 115.467C257.722 115.92 257.746 116.38 257.883 116.848L258.322 118.296C258.506 118.903 258.776 119.391 259.13 119.758C259.482 120.121 259.893 120.358 260.362 120.468C260.829 120.573 261.33 120.545 261.865 120.383C262.223 120.274 262.532 120.126 262.791 119.938C263.05 119.746 263.255 119.518 263.408 119.254C263.56 118.99 263.646 118.694 263.665 118.367L266.041 117.928C266.08 118.579 265.965 119.193 265.694 119.77C265.427 120.341 265.016 120.847 264.462 121.287C263.907 121.723 263.223 122.064 262.412 122.31ZM274.994 109.882L272.826 110.808C272.693 110.6 272.518 110.421 272.299 110.27C272.084 110.117 271.827 110.02 271.527 109.977C271.227 109.934 270.887 109.971 270.506 110.086C269.994 110.242 269.598 110.483 269.316 110.811C269.039 111.138 268.956 111.477 269.068 111.829C269.156 112.134 269.342 112.347 269.626 112.469C269.915 112.589 270.343 112.63 270.91 112.591L272.806 112.431C273.859 112.345 274.695 112.459 275.315 112.776C275.941 113.091 276.369 113.622 276.6 114.368C276.795 115.026 276.778 115.665 276.55 116.283C276.326 116.895 275.92 117.444 275.335 117.928C274.75 118.413 274.022 118.787 273.152 119.051C271.875 119.439 270.765 119.483 269.823 119.185C268.88 118.882 268.189 118.273 267.748 117.358L270.077 116.399C270.328 116.837 270.667 117.123 271.094 117.256C271.52 117.389 272.016 117.369 272.582 117.197C273.167 117.02 273.599 116.758 273.88 116.41C274.165 116.062 274.254 115.711 274.147 115.357C274.056 115.058 273.866 114.846 273.575 114.722C273.29 114.595 272.891 114.553 272.379 114.595L270.485 114.761C269.42 114.857 268.573 114.73 267.943 114.382C267.311 114.029 266.882 113.472 266.656 112.709C266.456 112.067 266.462 111.457 266.672 110.879C266.886 110.294 267.27 109.777 267.826 109.326C268.385 108.869 269.082 108.515 269.915 108.262C271.139 107.89 272.181 107.859 273.041 108.167C273.906 108.473 274.557 109.045 274.994 109.882ZM281.623 104.858L282.2 106.761L276.199 108.582L275.621 106.679L281.623 104.858ZM276.344 103.728L278.804 102.981L281.778 112.782C281.879 113.112 282.005 113.351 282.159 113.498C282.315 113.638 282.487 113.715 282.674 113.727C282.861 113.74 283.056 113.715 283.26 113.653C283.414 113.606 283.551 113.553 283.671 113.491C283.795 113.429 283.889 113.378 283.951 113.339L284.95 115.137C284.832 115.222 284.659 115.329 284.431 115.458C284.207 115.585 283.922 115.706 283.576 115.821C282.965 116.026 282.382 116.102 281.827 116.048C281.269 115.989 280.78 115.786 280.358 115.439C279.941 115.091 279.635 114.59 279.442 113.936L276.344 103.728Z" fill="#9487FD"/>
</svg>
