<svg width="392" height="269" viewBox="0 0 392 269" fill="none" xmlns="http://www.w3.org/2000/svg">
<rect x="1.8709" y="104.595" width="353.797" height="169.821" rx="13.5" transform="rotate(-16.8788 1.8709 104.595)" fill="#9487FD" stroke="white" stroke-width="3"/>
<rect x="76.6646" y="139.038" width="231.293" height="58.8318" rx="8" transform="rotate(-16.8788 76.6646 139.038)" fill="white"/>
<path d="M156.453 142.358C156.21 141.784 155.802 141.403 155.231 141.215C154.664 141.026 154.006 141.045 153.259 141.272C152.733 141.431 152.306 141.647 151.978 141.92C151.65 142.193 151.428 142.495 151.311 142.828C151.194 143.16 151.187 143.501 151.288 143.851C151.376 144.141 151.518 144.373 151.714 144.546C151.914 144.718 152.153 144.843 152.429 144.923C152.704 144.998 152.998 145.042 153.309 145.057C153.62 145.071 153.928 145.069 154.235 145.05L155.638 144.981C156.201 144.943 156.756 144.956 157.305 145.017C157.857 145.077 158.374 145.207 158.855 145.407C159.341 145.606 159.766 145.896 160.128 146.275C160.491 146.655 160.764 147.146 160.947 147.749C161.194 148.565 161.203 149.346 160.975 150.093C160.745 150.836 160.289 151.501 159.606 152.089C158.927 152.671 158.03 153.132 156.916 153.47C155.833 153.798 154.842 153.916 153.942 153.823C153.048 153.728 152.279 153.427 151.635 152.92C150.996 152.411 150.518 151.7 150.201 150.787L152.682 150.034C152.865 150.508 153.137 150.866 153.497 151.108C153.858 151.35 154.273 151.486 154.742 151.517C155.216 151.546 155.716 151.481 156.241 151.322C156.79 151.155 157.245 150.928 157.608 150.64C157.974 150.346 158.23 150.016 158.376 149.65C158.521 149.279 158.535 148.894 158.419 148.494C158.304 148.133 158.107 147.866 157.827 147.693C157.546 147.517 157.193 147.406 156.769 147.361C156.348 147.311 155.869 147.298 155.332 147.322L153.625 147.395C152.389 147.449 151.348 147.277 150.5 146.881C149.656 146.479 149.082 145.78 148.78 144.783C148.531 143.963 148.535 143.178 148.792 142.427C149.054 141.674 149.518 141.011 150.185 140.438C150.851 139.86 151.671 139.423 152.645 139.127C153.633 138.828 154.55 138.737 155.398 138.856C156.249 138.969 156.979 139.265 157.589 139.742C158.198 140.216 158.628 140.842 158.88 141.622L156.453 142.358ZM169.593 144.598L167.757 138.55L170.218 137.803L173.385 148.242L171 148.966L170.437 147.111L170.328 147.144C170.27 147.8 170.027 148.395 169.601 148.93C169.179 149.464 168.576 149.85 167.792 150.088C167.108 150.295 166.457 150.327 165.84 150.183C165.225 150.033 164.682 149.71 164.21 149.215C163.737 148.716 163.374 148.049 163.121 147.215L161.104 140.569L163.564 139.822L165.465 146.088C165.666 146.75 166.007 147.22 166.488 147.5C166.968 147.78 167.503 147.83 168.092 147.651C168.455 147.541 168.779 147.347 169.065 147.067C169.351 146.787 169.55 146.44 169.662 146.025C169.777 145.604 169.754 145.128 169.593 144.598ZM176.024 147.442L171.8 133.523L174.261 132.776L175.84 137.982L175.942 137.951C175.992 137.659 176.089 137.335 176.234 136.98C176.377 136.619 176.615 136.278 176.947 135.954C177.278 135.626 177.749 135.369 178.361 135.184C179.167 134.939 179.957 134.924 180.73 135.14C181.506 135.35 182.206 135.798 182.83 136.485C183.457 137.165 183.947 138.085 184.299 139.245C184.647 140.392 184.754 141.423 184.621 142.339C184.489 143.255 184.162 144.022 183.642 144.64C183.122 145.258 182.452 145.691 181.632 145.94C181.034 146.122 180.508 146.172 180.053 146.093C179.598 146.013 179.208 145.869 178.883 145.661C178.561 145.447 178.295 145.233 178.087 145.019L177.944 145.063L178.443 146.707L176.024 147.442ZM176.853 141.49C177.058 142.165 177.332 142.727 177.676 143.177C178.025 143.625 178.424 143.937 178.873 144.113C179.326 144.282 179.812 144.288 180.333 144.13C180.877 143.965 181.288 143.682 181.567 143.28C181.845 142.875 182 142.39 182.031 141.826C182.066 141.256 181.985 140.645 181.787 139.993C181.59 139.345 181.323 138.798 180.984 138.351C180.646 137.904 180.25 137.594 179.796 137.42C179.343 137.246 178.842 137.242 178.294 137.408C177.768 137.568 177.364 137.842 177.081 138.229C176.797 138.617 176.636 139.089 176.597 139.645C176.563 140.2 176.648 140.815 176.853 141.49ZM193.89 133.633L191.722 134.558C191.59 134.351 191.414 134.172 191.195 134.021C190.98 133.868 190.723 133.77 190.423 133.728C190.123 133.685 189.783 133.722 189.403 133.837C188.891 133.992 188.494 134.234 188.212 134.562C187.935 134.888 187.853 135.228 187.964 135.58C188.052 135.885 188.238 136.098 188.522 136.22C188.811 136.34 189.239 136.381 189.806 136.342L191.702 136.182C192.755 136.095 193.591 136.21 194.212 136.527C194.837 136.842 195.265 137.372 195.496 138.119C195.691 138.777 195.675 139.415 195.447 140.034C195.222 140.646 194.817 141.195 194.231 141.679C193.646 142.163 192.918 142.538 192.049 142.802C190.771 143.189 189.661 143.234 188.72 142.936C187.777 142.633 187.085 142.024 186.644 141.109L188.973 140.15C189.225 140.588 189.564 140.874 189.99 141.007C190.416 141.14 190.912 141.12 191.479 140.948C192.063 140.771 192.496 140.509 192.776 140.161C193.061 139.812 193.15 139.461 193.043 139.108C192.952 138.809 192.762 138.597 192.472 138.472C192.186 138.346 191.787 138.304 191.275 138.346L189.381 138.512C188.317 138.607 187.469 138.481 186.839 138.133C186.208 137.78 185.779 137.223 185.552 136.46C185.353 135.818 185.358 135.208 185.568 134.629C185.782 134.045 186.167 133.528 186.723 133.077C187.282 132.62 187.978 132.265 188.812 132.012C190.035 131.641 191.077 131.61 191.937 131.918C192.802 132.224 193.453 132.796 193.89 133.633ZM203.089 139.451C202.047 139.768 201.083 139.81 200.196 139.58C199.314 139.348 198.549 138.889 197.901 138.205C197.257 137.515 196.774 136.642 196.454 135.587C196.132 134.526 196.052 133.529 196.214 132.594C196.374 131.655 196.757 130.846 197.362 130.167C197.971 129.483 198.785 128.986 199.805 128.677C200.652 128.42 201.449 128.348 202.197 128.463C202.947 128.572 203.603 128.85 204.165 129.298C204.725 129.742 205.146 130.332 205.429 131.067L203.077 131.781C202.829 131.307 202.476 130.956 202.016 130.73C201.559 130.497 201.034 130.471 200.441 130.651C199.938 130.804 199.537 131.073 199.239 131.461C198.94 131.844 198.76 132.319 198.7 132.886C198.644 133.453 198.722 134.087 198.936 134.789C199.151 135.5 199.441 136.08 199.805 136.529C200.167 136.973 200.579 137.277 201.038 137.439C201.502 137.595 201.989 137.596 202.501 137.44C202.864 137.33 203.167 137.164 203.411 136.942C203.658 136.713 203.84 136.438 203.955 136.116C204.07 135.794 204.107 135.434 204.065 135.036L206.416 134.323C206.582 135.079 206.563 135.8 206.36 136.485C206.156 137.165 205.779 137.765 205.228 138.283C204.677 138.797 203.964 139.186 203.089 139.451ZM209.519 137.278L206.352 126.839L208.737 126.115L209.265 127.855L209.374 127.822C209.381 127.161 209.567 126.598 209.93 126.131C210.296 125.659 210.778 125.332 211.376 125.151C211.512 125.109 211.666 125.07 211.838 125.033C212.013 124.99 212.16 124.962 212.28 124.95L212.967 127.214C212.852 127.209 212.677 127.227 212.442 127.269C212.211 127.305 211.991 127.354 211.782 127.417C211.334 127.553 210.96 127.773 210.661 128.077C210.365 128.374 210.167 128.724 210.066 129.125C209.966 129.527 209.983 129.95 210.117 130.394L211.98 136.531L209.519 137.278ZM217.107 134.975L213.94 124.536L216.4 123.789L219.568 134.229L217.107 134.975ZM214.727 122.679C214.337 122.797 213.963 122.77 213.604 122.597C213.243 122.419 213.007 122.147 212.896 121.78C212.783 121.409 212.828 121.051 213.03 120.708C213.232 120.36 213.527 120.126 213.917 120.008C214.311 119.889 214.686 119.918 215.042 120.097C215.401 120.27 215.637 120.542 215.75 120.914C215.861 121.281 215.817 121.638 215.615 121.986C215.417 122.329 215.121 122.559 214.727 122.679ZM222.206 133.428L217.983 119.509L220.443 118.763L222.023 123.968L222.125 123.938C222.175 123.645 222.272 123.321 222.416 122.966C222.559 122.606 222.797 122.264 223.129 121.94C223.46 121.612 223.931 121.356 224.543 121.17C225.35 120.925 226.139 120.911 226.912 121.127C227.689 121.336 228.389 121.784 229.013 122.471C229.64 123.151 230.129 124.072 230.481 125.232C230.829 126.378 230.937 127.409 230.804 128.325C230.671 129.241 230.345 130.008 229.825 130.626C229.305 131.244 228.635 131.678 227.815 131.926C227.216 132.108 226.69 132.159 226.235 132.079C225.781 131.999 225.391 131.855 225.065 131.647C224.743 131.433 224.478 131.22 224.269 131.006L224.127 131.049L224.626 132.694L222.206 133.428ZM223.035 127.476C223.24 128.151 223.515 128.714 223.859 129.163C224.208 129.612 224.607 129.924 225.056 130.099C225.508 130.269 225.995 130.274 226.516 130.116C227.059 129.951 227.471 129.668 227.75 129.267C228.027 128.861 228.182 128.376 228.214 127.812C228.249 127.243 228.167 126.631 227.969 125.979C227.773 125.331 227.505 124.784 227.167 124.337C226.828 123.891 226.432 123.58 225.979 123.406C225.525 123.232 225.024 123.228 224.476 123.395C223.95 123.554 223.546 123.828 223.263 124.216C222.98 124.603 222.819 125.075 222.78 125.631C222.745 126.186 222.83 126.801 223.035 127.476ZM238.836 128.604C237.789 128.922 236.819 128.979 235.926 128.775C235.036 128.565 234.265 128.121 233.614 127.443C232.962 126.76 232.47 125.873 232.139 124.781C231.813 123.707 231.731 122.703 231.892 121.768C232.057 120.827 232.44 120.018 233.041 119.341C233.641 118.659 234.439 118.167 235.436 117.865C236.079 117.669 236.718 117.589 237.352 117.625C237.989 117.654 238.593 117.817 239.163 118.114C239.738 118.41 240.253 118.852 240.709 119.441C241.163 120.026 241.529 120.776 241.807 121.691L242.036 122.445L233.48 125.042L232.976 123.383L239.175 121.503C239.027 121.033 238.798 120.645 238.487 120.338C238.175 120.027 237.808 119.819 237.385 119.715C236.967 119.609 236.523 119.628 236.051 119.771C235.548 119.924 235.144 120.18 234.837 120.54C234.53 120.896 234.329 121.303 234.236 121.762C234.146 122.215 234.169 122.675 234.306 123.143L234.746 124.591C234.93 125.198 235.199 125.685 235.553 126.053C235.905 126.416 236.316 126.652 236.785 126.763C237.252 126.868 237.754 126.84 238.288 126.678C238.646 126.569 238.955 126.421 239.215 126.233C239.473 126.041 239.678 125.813 239.831 125.549C239.983 125.285 240.069 124.989 240.089 124.662L242.464 124.223C242.503 124.874 242.388 125.488 242.118 126.065C241.85 126.636 241.44 127.141 240.886 127.582C240.33 128.017 239.647 128.358 238.836 128.604Z" fill="#673AB7"/>
</svg>
